<svg width="88" height="30" viewBox="0 0 88 30" fill="none" xmlns="http://www.w3.org/2000/svg">
<path d="M2.99757 20.0915C3.21168 23.7637 6.42337 27.0039 10.2774 27.0039C14.6024 27.0039 16.9149 23.5477 16.9149 23.5477L18.8419 25.4918C18.8419 25.4918 15.8443 29.812 10.2774 29.812C4.71047 29.812 0 25.0598 0 19.0115C0 12.9632 4.71047 8.21094 10.0633 8.21094C15.6302 8.21094 19.9124 12.5311 19.9124 18.5821C19.9125 19.108 19.8404 19.6314 19.6983 20.1374L2.99757 20.0915ZM2.99757 17.4994H16.9149C16.4866 13.8245 13.7032 11.0191 10.0633 11.0191C6.42336 11.0191 3.42579 14.0405 2.99757 17.4994Z" fill="#0E0E0E"/>
<path d="M28.2622 11.6643C29.0124 10.5931 30.0071 9.71973 31.1624 9.11817C32.3177 8.5166 33.5996 8.20447 34.8997 8.20816C39.8243 8.20816 43.2501 11.6643 43.2501 17.0646V29.3799H40.2525V17.0646C40.2525 13.3924 37.8973 11.0163 34.6856 11.0163C31.0457 11.0163 28.2622 13.8244 28.2622 17.9313V29.3799H25.2646V8.64018H28.2622V11.6643Z" fill="#0E0E0E"/>
<path d="M60.4573 13.2547C59.9192 12.5743 59.2348 12.0263 58.4558 11.652C57.6769 11.2778 56.8237 11.0872 55.961 11.0946C53.6057 11.0946 52.107 12.6067 52.107 14.1188C52.107 18.6577 63.2408 16.2789 63.2408 23.6259C63.2408 27.0821 60.4573 29.8902 55.7469 29.8902C50.6082 29.8902 48.2529 26.218 48.2529 26.218L50.3941 24.0579C50.3941 24.0579 52.3211 27.0821 55.7469 27.0821C58.7444 27.0821 60.2432 25.57 60.2432 23.6259C60.2432 18.8737 49.1094 21.2498 49.1094 14.1188C49.1094 11.0946 51.8928 8.28646 55.961 8.28646C57.1983 8.27586 58.4248 8.51934 59.5659 9.0021C60.7069 9.48486 61.7387 10.1968 62.5984 11.0946L60.4573 13.2547Z" fill="#0E0E0E"/>
<path d="M77.5081 8.20813C83.2891 8.20813 87.9996 12.9604 87.9996 19.0087C87.9996 25.0569 83.2891 29.8092 77.5081 29.8092C71.7271 29.8092 67.0166 25.0569 67.0166 19.0087C67.0166 12.9604 71.7271 8.20813 77.5081 8.20813ZM77.5081 11.0163C73.44 11.0163 70.0142 14.4724 70.0142 19.0114C70.0142 23.5044 73.44 27.0037 77.5081 27.0037C81.5762 27.0037 85.002 23.5476 85.002 19.0114C85.002 14.4751 81.5762 11.0163 77.5081 11.0163Z" fill="#0E0E0E"/>
<path d="M69.9883 0H85.0297V2.66233H69.9883V0Z" fill="#F8991D"/>
</svg>
